<?xml version="1.0" standalone="no"?><!DOCTYPE svg PUBLIC "-//W3C//DTD SVG 1.1//EN" "http://www.w3.org/Graphics/SVG/1.1/DTD/svg11.dtd"><svg t="1781168626633" class="icon" viewBox="0 0 1024 1024" version="1.1" xmlns="http://www.w3.org/2000/svg" p-id="19101" xmlns:xlink="http://www.w3.org/1999/xlink" width="200" height="200"><path d="M620.303059 216.124235l-312.440471 235.429647a26.352941 26.352941 0 0 0-4.608 37.647059l234.797177 289.882353a26.352941 26.352941 0 0 0 35.538823 5.029647l58.970353-41.020235 245.458824-184.952471a26.352941 26.352941 0 0 0 5.180235-36.924235l-226.002824-299.911529a26.352941 26.352941 0 0 0-36.894117-5.180236z m10.631529 57.916236l194.319059 257.837176-223.623529 168.538353-38.038589 26.443294-202.24-249.645176L630.964706 274.070588z" fill="#000000" p-id="19102"></path><path d="M314.277647 446.735059l31.713882 42.074353L183.717647 611.087059l134.927059 179.049412h163.177412l60.235294-48.188236L575.006118 783.058824l-67.433412 54.031058a26.352941 26.352941 0 0 1-12.920471 5.541647l-3.553882 0.240942h-185.584941a26.352941 26.352941 0 0 1-18.763294-7.830589l-2.288942-2.710588-158.689882-210.55247a26.352941 26.352941 0 0 1 2.469647-34.575059l2.710588-2.349177 183.326118-138.119529z" fill="#000000" p-id="19103"></path><path d="M858.352941 790.106353a26.352941 26.352941 0 0 1 3.312941 52.495059l-3.312941 0.210823H307.410824a26.352941 26.352941 0 0 1-3.312942-52.495059l3.312942-0.210823H858.352941z" fill="#000000" p-id="19104"></path></svg>