<?xml version="1.0" standalone="no"?><!DOCTYPE svg PUBLIC "-//W3C//DTD SVG 1.1//EN" "http://www.w3.org/Graphics/SVG/1.1/DTD/svg11.dtd"><svg t="1781137995810" class="icon" viewBox="0 0 1024 1024" version="1.1" xmlns="http://www.w3.org/2000/svg" p-id="2936" xmlns:xlink="http://www.w3.org/1999/xlink" width="200" height="200"><path d="M560.542694 1002.188138L418.605547 782.31356a191.999147 191.999147 0 0 0-123.543155-84.005552L38.399829 647.203049c-41.907962-8.343667-52.43236-63.525644-16.497704-86.660355L241.776703 418.605547a191.999147 191.999147 0 0 0 84.005553-123.543155l51.104958-256.662563c8.343667-41.907962 63.525644-52.43236 86.660355-16.497704L605.484716 241.776703a191.999147 191.999147 0 0 0 123.543155 84.005553l256.662563 51.104958c41.907962 8.343667 52.43236 63.525644 16.497704 86.660355L782.31356 605.484716a191.999147 191.999147 0 0 0-84.005552 123.543155l-51.104959 256.662563c-8.343667 41.907962-63.525644 52.43236-86.660355 16.497704z" fill="#F8CDDF" p-id="2937"></path><path d="M481.277861 707.694632l-8.438481-135.015696c-1.896288-31.004307-17.540663-59.543439-42.571663-77.937431l-109.036552-80.212977c-19.626579-14.411788-10.524398-45.510909 13.842901-47.027939l135.015697-8.438481c31.004307-1.896288 59.543439-17.540663 77.937431-42.571663l80.212977-109.036552c14.411788-19.626579 45.510909-10.524398 47.027939 13.842901l8.438481 135.015696c1.896288 31.004307 17.540663 59.543439 42.571663 77.937432l109.036552 80.212977c19.626579 14.411788 10.524398 45.510909-13.842901 47.027939l-135.015697 8.438481c-31.004307 1.896288-59.543439 17.540663-77.937431 42.571662l-80.212977 109.036553c-14.411788 19.626579-45.510909 10.524398-47.027939-13.842902zM257.705521 663.60594l-24.936185-39.537603a36.105321 36.105321 0 0 0-16.497705-14.03253l-43.045734-18.299178c-9.955511-4.266648-11.093284-17.91992-1.896288-23.703598l39.537602-24.936186c6.25775-3.88739 11.093284-9.671068 14.03253-16.497704L243.198919 483.553406c4.266648-9.955511 17.91992-11.093284 23.703598-1.896287l24.936186 39.537602c3.88739 6.25775 9.671068 11.093284 16.497704 14.03253l43.045735 18.299178c9.955511 4.266648 11.093284 17.91992 1.896288 23.703598l-39.537602 24.936186c-6.25775 3.88739-11.093284 9.671068-14.03253 16.497704l-18.299178 43.045735c-4.266648 9.955511-17.91992 11.093284-23.703599 1.896288zM735.285621 304.828275a7.461893 7.461893 0 0 1-2.749617-6.826636c1.51703-18.299178 9.765883-107.424708 32.900594-123.827598 10.903655-7.679966 40.106488 2.465174 44.847208 20.859166s-52.716803 126.861658-74.903371 109.700253zM804.310499 328.816316s16.782148-11.282913 34.51244-8.248852 31.28875 14.696231 10.619212 24.936186-72.343382 5.594049-45.226466-16.782148zM915.622597 546.699792s60.301954-2.844432 72.912269 11.8518 19.247322 44.183507-1.611845 49.493113-89.599602-18.393992-95.38328-40.106488 24.082856-21.238424 24.082856-21.238425z" fill="#E84793" p-id="2938"></path><path d="M591.072929 689.30064s-42.571663 74.808556-41.623519 112.355056c1.042958 37.5465 48.450155 33.374666 66.275261 9.007368s-4.645905-102.30473-9.102182-113.018757-9.007367-18.488807-15.54956-8.343667zM461.17721 789.42464s-37.830943 22.945083-31.193936 64.75823 44.088693-7.964409 51.010144-29.866534c8.059223-25.410257 11.567356-56.31975-19.816208-34.891696zM184.413995 270.979536s-18.393992 6.447379-18.109549 17.825106 41.149447 66.275261 50.346443 67.507848 13.463644-7.964409 15.359932-15.359931-4.930348-80.687049-47.596826-69.973023zM280.745419 215.418302s-15.644375 25.125814 13.842901 56.793822c0 0 10.714026 6.731822 10.714027-22.091754s-9.860697-45.700538-24.556928-34.702068z" fill="#E84793" p-id="2939"></path></svg>